<svg width="59" height="59" viewBox="0 0 59 59" fill="none" xmlns="http://www.w3.org/2000/svg">
<path fill-rule="evenodd" clip-rule="evenodd" d="M7.98962 7.9895H51.0105V51.0103H7.98962V7.9895ZM9.83337 9.83325V49.1666H49.1667V9.83325H9.83337Z" fill="#2D2E2F"/>
<path fill-rule="evenodd" clip-rule="evenodd" d="M22.7396 22.4324C22.7396 21.9233 23.1524 21.5105 23.6615 21.5105H36.2605V23.3542H24.5834V28.8855H35.3386C35.8477 28.8855 36.2605 29.2983 36.2605 29.8074V37.1824C36.2605 37.6915 35.8477 38.1042 35.3386 38.1042H22.7396V36.2605H34.4167V30.7292H23.6615C23.1524 30.7292 22.7396 30.3165 22.7396 29.8074V22.4324Z" fill="#FA4616"/>
<path fill-rule="evenodd" clip-rule="evenodd" d="M30.7291 17.2083V22.4322H28.8854V17.2083H30.7291Z" fill="#FA4616"/>
<path fill-rule="evenodd" clip-rule="evenodd" d="M30.7291 36.5676V41.7916H28.8854V36.5676H30.7291Z" fill="#FA4616"/>
</svg>
