<svg width="59" height="59" viewBox="0 0 59 59" fill="none" xmlns="http://www.w3.org/2000/svg">
<path fill-rule="evenodd" clip-rule="evenodd" d="M7.375 21.8178C7.375 20.6298 8.33805 19.6667 9.52604 19.6667H49.474C50.6619 19.6667 51.625 20.6298 51.625 21.8178V47.0157C51.625 48.2037 50.6619 49.1667 49.474 49.1667H9.52604C8.33805 49.1667 7.375 48.2037 7.375 47.0157V21.8178ZM9.52604 21.5105C9.35636 21.5105 9.21875 21.6481 9.21875 21.8178V47.0157C9.21875 47.1854 9.35636 47.323 9.52604 47.323H49.474C49.6436 47.323 49.7812 47.1854 49.7812 47.0157V21.8178C49.7812 21.6481 49.6436 21.5105 49.474 21.5105H9.52604Z" fill="#2D2E2F"/>
<path fill-rule="evenodd" clip-rule="evenodd" d="M11.0625 16.901C11.0625 15.7131 12.0256 14.75 13.2135 14.75H45.7865C46.9744 14.75 47.9375 15.7131 47.9375 16.901V17.5156H46.0938V16.901C46.0938 16.7314 45.9561 16.5938 45.7865 16.5938H13.2135C13.0439 16.5938 12.9062 16.7314 12.9062 16.901V17.5156H11.0625V16.901Z" fill="#2D2E2F"/>
<path fill-rule="evenodd" clip-rule="evenodd" d="M14.75 11.9843C14.75 10.7963 15.7131 9.83325 16.901 9.83325H42.099C43.2869 9.83325 44.25 10.7963 44.25 11.9843V12.5989H42.4062V11.9843C42.4062 11.8146 42.2686 11.677 42.099 11.677H16.901C16.7314 11.677 16.5938 11.8146 16.5938 11.9843V12.5989H14.75V11.9843Z" fill="#2D2E2F"/>
<path fill-rule="evenodd" clip-rule="evenodd" d="M35.0312 25.8125H44.25V34.4167H35.0312V25.8125ZM36.875 27.6563V32.5729H42.4062V27.6563H36.875Z" fill="#FA4616"/>
<path fill-rule="evenodd" clip-rule="evenodd" d="M29.5 36.875H14.75V35.0312H29.5V36.875Z" fill="#2D2E2F"/>
<path fill-rule="evenodd" clip-rule="evenodd" d="M27.6562 41.7917H14.75V39.948H27.6562V41.7917Z" fill="#2D2E2F"/>
</svg>
