<svg width="59" height="59" viewBox="0 0 59 59" fill="none" xmlns="http://www.w3.org/2000/svg">
<path fill-rule="evenodd" clip-rule="evenodd" d="M6.76038 6.7605H52.2395V52.2397H6.76038V6.7605ZM8.60413 8.60425V50.3959H50.3958V8.60425H8.60413Z" fill="#2D2E2F"/>
<path fill-rule="evenodd" clip-rule="evenodd" d="M44.25 18.4375H14.75V16.5938H44.25V18.4375Z" fill="#2D2E2F"/>
<path fill-rule="evenodd" clip-rule="evenodd" d="M35.0312 23.9688H14.75V22.125H35.0312V23.9688Z" fill="#2D2E2F"/>
<path fill-rule="evenodd" clip-rule="evenodd" d="M23.9688 41.7917H14.75V39.948H23.9688V41.7917Z" fill="#2D2E2F"/>
<path fill-rule="evenodd" clip-rule="evenodd" d="M23.9688 29.5H14.75V27.6562H23.9688V29.5Z" fill="#2D2E2F"/>
<path fill-rule="evenodd" clip-rule="evenodd" d="M23.9688 35.6458H14.75V33.802H23.9688V35.6458Z" fill="#2D2E2F"/>
<path fill-rule="evenodd" clip-rule="evenodd" d="M43.7307 29.7809L37.8639 36.8637L35.6184 34.7854L29.9058 41.7612L28.4794 40.5931L35.4331 32.1017L37.6867 34.1874L42.3108 28.6047L43.7307 29.7809Z" fill="#FA4616"/>
<path fill-rule="evenodd" clip-rule="evenodd" d="M30.1146 27.6562V39.9479H44.25V41.7917H28.2709V27.6562H30.1146Z" fill="#FA4616"/>
</svg>
