<?xml version="1.0" encoding="utf-8"?>
<!-- Generator: Adobe Illustrator 27.7.0, SVG Export Plug-In . SVG Version: 6.00 Build 0)  -->
<svg version="1.1" id="Layer_1" xmlns="http://www.w3.org/2000/svg" xmlns:xlink="http://www.w3.org/1999/xlink" x="0px" y="0px"
	 viewBox="0 0 345.2 149.4" style="enable-background:new 0 0 345.2 149.4;" xml:space="preserve">
<style type="text/css">
	.st0{fill:#FA4616;}
</style>
<path class="st0" d="M102.6,42.9c-3.9,0-7,3.1-7,7c0.1,3.7,3.1,6.7,6.8,6.8c3.8,0.1,7-2.9,7.1-6.8C109.5,46,106.4,42.9,102.6,42.9z"
	/>
<g>
	<path d="M209.4,62.7v44.2h-11.3v-5c-3,3.5-7.7,5.5-14.3,5.5c-12,0-20.5-9.4-20.5-22.6c0-13.1,8.3-22.7,20.5-22.7
		c6.4,0,11.2,2.2,14.3,6.1v-5.4H209.4z M198.1,84.8c0-7.7-4.5-12.9-11.6-12.9c-7.2,0-11.6,5-11.6,12.9c0,7.3,4,12.7,11.6,12.7
		C193.3,97.5,198.1,92.5,198.1,84.8z"/>
	<path d="M274.6,87.6v19.3h-11.2v-59h11.2v33.2l14.5-18.3h13.2l-17.6,22l18.2,22.2h-13.7L274.6,87.6z"/>
	<path d="M258.5,81.2v25.7h-11.2V82.5c0-6.7-3.4-11.1-10.1-11.1c-6.6,0-10.6,4.5-10.6,12v23.4h-11.2V62.7h11.2v4.5
		c2.9-3.4,7.3-5.1,13.4-5.1C250.3,62.1,258.5,69.6,258.5,81.2z"/>
	<path d="M158.3,82.7c2,2.6,3,5.6,3,8.9c0,4.6-1.7,8.5-4.6,11.1c-3.2,2.8-7.8,4.1-13.7,4.1h-24.1V50.7h23.7c5.7,0,10,1.3,13.2,3.7
		c3,2.4,4.6,5.9,4.6,10.6c0,3.5-0.9,6.3-2.8,8.5c-1.9,2.2-4.3,3.7-7.2,4.4C153.5,78.7,156.3,80.1,158.3,82.7z M140,74.2
		c2.8,0,5-0.6,6.5-1.9c1.5-1.1,2.2-3,2.2-5.4s-0.7-4.1-2.2-5.4c-1.5-1.3-3.7-1.9-6.7-1.9h-10v14.5H140z M147.4,95.7
		c1.7-1.3,2.4-3.2,2.4-5.7c0-2.6-0.7-4.4-2.4-5.7c-1.7-1.3-4.1-2-6.9-2H130v15.4h10.7C143.5,97.7,145.9,97.2,147.4,95.7z"/>
	<path class="st0" d="M76.5,83.2c0,8.6-3.7,13.4-11.3,13.4c-7.9,0-11.4-5-11.4-13.4V49.9H42.4v33.3c0,15.2,8.4,24.1,22.5,24.1
		c14.5,0,23-9,23-24.1V49.9H76.5V83.2z"/>
	<rect x="96.9" y="62.1" class="st0" width="11.4" height="44.7"/>
</g>
</svg>
